<svg width="180" height="144" viewBox="0 0 180 144" fill="none" xmlns="http://www.w3.org/2000/svg">
<path fill-rule="evenodd" clip-rule="evenodd" d="M75.9655 21.5358C75.7822 21.7012 75.6367 21.8978 75.5375 22.1142C75.4382 22.3306 75.3871 22.5626 75.3871 22.7969C75.3871 23.0312 75.4382 23.2632 75.5375 23.4796C75.6367 23.696 75.7822 23.8925 75.9655 24.058L86.3881 33.4844L75.9655 42.9108C75.7825 43.0764 75.6373 43.273 75.5382 43.4894C75.4391 43.7058 75.3881 43.9377 75.3881 44.1719C75.3881 44.4061 75.4391 44.638 75.5382 44.8544C75.6373 45.0708 75.7825 45.2674 75.9655 45.433C76.1486 45.5986 76.3659 45.73 76.605 45.8196C76.8442 45.9093 77.1005 45.9554 77.3594 45.9554C77.6183 45.9554 77.8746 45.9093 78.1137 45.8196C78.3529 45.73 78.5702 45.5986 78.7533 45.433L90.5658 34.7455C90.7491 34.58 90.8946 34.3835 90.9938 34.1671C91.0931 33.9507 91.1441 33.7187 91.1441 33.4844C91.1441 33.2501 91.0931 33.0181 90.9938 32.8017C90.8946 32.5853 90.7491 32.3887 90.5658 32.2233L78.7533 21.5358C78.5704 21.3699 78.3531 21.2383 78.1139 21.1485C77.8748 21.0587 77.6183 21.0125 77.3594 21.0125C77.1004 21.0125 76.844 21.0587 76.6048 21.1485C76.3656 21.2383 76.1484 21.3699 75.9655 21.5358V21.5358Z" fill="black"/>
<path fill-rule="evenodd" clip-rule="evenodd" d="M89.1719 33.4844C89.1719 33.012 88.9645 32.5589 88.5952 32.2248C88.226 31.8908 87.7253 31.7031 87.2031 31.7031H61.6094C58.9987 31.7031 56.4949 32.6415 54.6488 34.3117C52.8027 35.982 51.7656 38.2473 51.7656 40.6094V60.2031C51.7656 60.6755 51.973 61.1286 52.3423 61.4627C52.7115 61.7967 53.2122 61.9844 53.7344 61.9844C54.2565 61.9844 54.7573 61.7967 55.1265 61.4627C55.4957 61.1286 55.7031 60.6755 55.7031 60.2031V40.6094C55.7031 39.1921 56.3254 37.8329 57.433 36.8308C58.5407 35.8286 60.0429 35.2656 61.6094 35.2656H87.2031C87.7253 35.2656 88.226 35.078 88.5952 34.7439C88.9645 34.4099 89.1719 33.9568 89.1719 33.4844Z" fill="black"/>
<path fill-rule="evenodd" clip-rule="evenodd" d="M130.034 135.464C130.218 135.299 130.363 135.102 130.463 134.886C130.562 134.669 130.613 134.437 130.613 134.203C130.613 133.969 130.562 133.737 130.463 133.52C130.363 133.304 130.218 133.107 130.034 132.942L119.612 123.516L130.034 114.089C130.218 113.924 130.363 113.727 130.462 113.511C130.561 113.294 130.612 113.062 130.612 112.828C130.612 112.594 130.561 112.362 130.462 112.146C130.363 111.929 130.218 111.733 130.034 111.567C129.851 111.401 129.634 111.27 129.395 111.18C129.156 111.091 128.899 111.045 128.641 111.045C128.382 111.045 128.125 111.091 127.886 111.18C127.647 111.27 127.43 111.401 127.247 111.567L115.434 122.254C115.251 122.42 115.105 122.617 115.006 122.833C114.907 123.049 114.856 123.281 114.856 123.516C114.856 123.75 114.907 123.982 115.006 124.198C115.105 124.415 115.251 124.611 115.434 124.777L127.247 135.464C127.43 135.63 127.647 135.762 127.886 135.852C128.125 135.941 128.382 135.988 128.641 135.988C128.9 135.988 129.156 135.941 129.395 135.852C129.634 135.762 129.852 135.63 130.034 135.464V135.464Z" fill="black"/>
<path fill-rule="evenodd" clip-rule="evenodd" d="M116.828 123.516C116.828 123.988 117.036 124.441 117.405 124.775C117.774 125.109 118.275 125.297 118.797 125.297H144.391C147.001 125.297 149.505 124.359 151.351 122.688C153.197 121.018 154.234 118.753 154.234 116.391V96.7969C154.234 96.3245 154.027 95.8714 153.658 95.5373C153.289 95.2033 152.788 95.0156 152.266 95.0156C151.743 95.0156 151.243 95.2033 150.874 95.5373C150.504 95.8714 150.297 96.3245 150.297 96.7969V116.391C150.297 117.808 149.675 119.167 148.567 120.169C147.459 121.171 145.957 121.734 144.391 121.734H118.797C118.275 121.734 117.774 121.922 117.405 122.256C117.036 122.59 116.828 123.043 116.828 123.516Z" fill="black"/>
<path fill-rule="evenodd" clip-rule="evenodd" d="M142.5 5.0625H114.375C113.132 5.0625 111.94 5.59587 111.06 6.54527C110.181 7.49467 109.688 8.78234 109.688 10.125V70.875C109.688 72.2177 110.181 73.5053 111.06 74.4547C111.94 75.4041 113.132 75.9375 114.375 75.9375H142.5C143.743 75.9375 144.935 75.4041 145.815 74.4547C146.694 73.5053 147.188 72.2177 147.188 70.875V10.125C147.188 8.78234 146.694 7.49467 145.815 6.54527C144.935 5.59587 143.743 5.0625 142.5 5.0625ZM114.375 0C111.889 0 109.504 1.06674 107.746 2.96554C105.988 4.86435 105 7.43968 105 10.125V70.875C105 73.5603 105.988 76.1356 107.746 78.0345C109.504 79.9333 111.889 81 114.375 81H142.5C144.986 81 147.371 79.9333 149.129 78.0345C150.887 76.1356 151.875 73.5603 151.875 70.875V10.125C151.875 7.43968 150.887 4.86435 149.129 2.96554C147.371 1.06674 144.986 0 142.5 0L114.375 0Z" fill="black"/>
<path fill-rule="evenodd" clip-rule="evenodd" d="M128.438 70.875C129.681 70.875 130.873 70.3416 131.752 69.3922C132.631 68.4428 133.125 67.1552 133.125 65.8125C133.125 64.4698 132.631 63.1822 131.752 62.2328C130.873 61.2834 129.681 60.75 128.438 60.75C127.194 60.75 126.002 61.2834 125.123 62.2328C124.244 63.1822 123.75 64.4698 123.75 65.8125C123.75 67.1552 124.244 68.4428 125.123 69.3922C126.002 70.3416 127.194 70.875 128.438 70.875Z" fill="black"/>
<path d="M140.844 27.3086C140.425 26.3993 139.821 25.5754 139.066 24.8828C138.31 24.1882 137.419 23.6362 136.441 23.2568C135.426 22.8619 134.339 22.6597 133.241 22.6621C131.7 22.6621 130.197 23.0576 128.891 23.8047C128.578 23.9834 128.281 24.1797 128 24.3936C127.719 24.1797 127.422 23.9834 127.109 23.8047C125.803 23.0576 124.3 22.6621 122.759 22.6621C121.65 22.6621 120.575 22.8613 119.559 23.2568C118.578 23.6377 117.694 24.1856 116.934 24.8828C116.178 25.5746 115.574 26.3987 115.156 27.3086C114.722 28.2549 114.5 29.2598 114.5 30.294C114.5 31.2695 114.713 32.2861 115.134 33.3203C115.488 34.1846 115.994 35.0811 116.641 35.9863C117.666 37.419 119.075 38.9131 120.825 40.4277C123.725 42.9385 126.597 44.6729 126.719 44.7432L127.459 45.1885C127.788 45.3848 128.209 45.3848 128.538 45.1885L129.278 44.7432C129.4 44.6699 132.269 42.9385 135.172 40.4277C136.922 38.9131 138.331 37.419 139.356 35.9863C140.003 35.0811 140.512 34.1846 140.862 33.3203C141.284 32.2861 141.497 31.2695 141.497 30.294C141.5 29.2598 141.278 28.2549 140.844 27.3086V27.3086Z" fill="black"/>
<path d="M90 75.3214H6C4.375 75.3214 2.96875 75.7688 1.78125 76.6635C0.59375 77.5582 0 78.6585 0 79.9643V119.429C0 120.686 0.59375 121.774 1.78125 122.693C2.96875 123.612 4.375 124.071 6 124.071H45V131.036H30C29.1875 131.036 28.4844 131.265 27.8906 131.725C27.2969 132.184 27 132.728 27 133.357C27 133.986 27.2969 134.53 27.8906 134.989C28.4844 135.449 29.1875 135.679 30 135.679H66C66.8125 135.679 67.5156 135.449 68.1094 134.989C68.7031 134.53 69 133.986 69 133.357C69 132.728 68.7031 132.184 68.1094 131.725C67.5156 131.265 66.8125 131.036 66 131.036H51V124.071H90C91.625 124.071 93.0312 123.612 94.2188 122.693C95.4063 121.774 96 120.686 96 119.429V79.9643C96 78.6585 95.4063 77.5582 94.2188 76.6635C93.0312 75.7688 91.625 75.3214 90 75.3214ZM90 119.429H6V79.9643H90V119.429Z" fill="black"/>
<path d="M60.8438 93.3086C60.4249 92.3993 59.8209 91.5754 59.0656 90.8828C58.3098 90.1882 57.4186 89.6362 56.4406 89.2568C55.4265 88.8619 54.3388 88.6597 53.2406 88.6621C51.7 88.6621 50.1969 89.0576 48.8906 89.8047C48.5781 89.9834 48.2812 90.1797 48 90.3936C47.7188 90.1797 47.4219 89.9834 47.1094 89.8047C45.8031 89.0576 44.3 88.6621 42.7594 88.6621C41.65 88.6621 40.575 88.8613 39.5594 89.2568C38.5781 89.6377 37.6937 90.1855 36.9344 90.8828C36.1781 91.5746 35.574 92.3987 35.1562 93.3086C34.7219 94.2549 34.5 95.2598 34.5 96.2939C34.5 97.2695 34.7125 98.2861 35.1344 99.3203C35.4875 100.185 35.9937 101.081 36.6406 101.986C37.6656 103.419 39.075 104.913 40.825 106.428C43.725 108.938 46.5969 110.673 46.7188 110.743L47.4594 111.188C47.7875 111.385 48.2094 111.385 48.5375 111.188L49.2781 110.743C49.4 110.67 52.2687 108.938 55.1719 106.428C56.9219 104.913 58.3313 103.419 59.3563 101.986C60.0031 101.081 60.5125 100.185 60.8625 99.3203C61.2844 98.2861 61.4969 97.2695 61.4969 96.2939C61.5 95.2598 61.2781 94.2549 60.8438 93.3086V93.3086Z" fill="black"/>
</svg>
